<svg style="fill:rgb(192, 57, 43)" version="1.0" xmlns:xlink="http://www.w3.org/1999/xlink" width="80%">
    <g>
        <path d="M -118.57143,472.36218 L -118.57143,22.362181 L 331.42855,22.362181 L 781.42858,22.362181 L 781.42858,472.36218 L 781.42858,922.36217 L 331.42855,922.36217 L -118.57143,922.36217 L -118.57143,472.36218 z M 338.63935,865.27917 C 374.21745,861.53427 407.61565,839.54667 424.29485,808.88807 C 429.20935,799.85457 434.09515,786.59167 435.53985,778.36217 C 436.07095,775.33717 436.88775,755.76217 437.35505,734.86217 C 438.27835,693.55907 438.93095,687.77037 444.62645,670.36217 C 451.33715,649.85107 462.52135,630.50807 485.96805,598.86217 C 508.99928,567.77697 511.87468,563.56547 521.12898,547.36217 C 531.17918,529.76527 535.42968,520.20537 539.58058,505.86218 C 553.12508,459.05933 546.75168,398.7494 523.34038,352.18667 C 511.26558,328.17124 491.49055,302.97048 471.00445,285.4914 C 438.64135,257.87857 402.95915,241.24271 359.88565,233.68527 C 345.81435,231.2164 309.47175,231.25849 293.42855,233.76224 C 219.49535,245.30052 159.31299,289.42727 126.97366,355.80987 C 112.16374,386.21001 104.65215,417.98029 105.67849,445.87779 C 106.10215,457.39346 106.45939,459.48948 108.77837,464.06578 C 112.82728,472.05592 118.3361,475.52885 126.96129,475.52885 C 133.518,475.52885 137.5421,473.74041 141.16775,469.21505 C 145.46502,463.85141 147.81901,455.80706 151.47369,433.99631 C 158.96946,389.26223 171.84604,361.06394 197.35359,333.52444 C 233.28365,294.73216 280.05155,274.31611 330.92855,275.21359 C 353.74145,275.61602 380.65815,283.20445 404.42855,295.93496 C 436.60685,313.16838 467.40395,343.53782 481.93205,372.36218 C 495.87968,400.03488 500.77358,420.14567 500.79168,449.86218 C 500.80438,470.85734 499.27158,480.69784 493.26678,498.17136 C 485.67135,520.27357 474.84795,538.53317 445.63045,578.53637 C 415.76115,619.43207 402.34785,642.67507 396.10125,664.36217 C 390.98885,682.11177 390.25705,689.44857 389.76785,727.86217 C 389.35415,760.34327 389.10955,764.54637 387.26555,770.86217 C 381.60095,790.26267 364.08915,808.73497 344.82125,815.63427 C 340.68185,817.11647 333.40855,818.56907 326.61305,819.27077 C 315.17505,820.45197 306.70255,822.91797 302.79115,826.20447 C 299.53085,828.94387 296.42855,835.81767 296.42855,840.30207 C 296.42855,849.21247 301.92535,857.48087 310.92855,862.11357 C 319.58275,866.56657 322.85585,866.94047 338.63935,865.27917 z M 46.857486,768.98417 C 59.776687,759.13027 53.119136,739.07647 36.928567,739.07647 C 30.671297,739.07647 25.486787,742.14687 22.358877,747.70497 C 17.959277,755.52287 21.436587,766.57077 29.608197,770.73717 C 34.521307,773.24207 42.313226,772.45027 46.857486,768.98417 z M 117.47395,698.32987 C 123.47291,694.05827 126.14478,687.69687 124.84654,680.77667 C 123.90224,675.74307 117.09245,668.89687 112.09795,667.95997 C 105.96232,666.80887 101.49615,668.24197 96.902247,672.83587 C 92.308357,677.42977 90.875267,681.89597 92.026317,688.03157 C 92.816027,692.24107 99.795457,699.89657 103.56825,700.69147 C 107.76864,701.57657 114.52611,700.42897 117.47395,698.32987 z M 194.68786,598.12137 L 168.94033,572.35947 L 155.43445,585.92037 L 141.92857,599.48127 L 167.80908,625.02757 L 193.68958,650.57397 L 207.06249,637.22857 L 220.43535,623.88317 L 194.68786,598.12137 z M 263.42415,552.36537 C 268.46035,548.77917 270.70025,544.70417 270.78305,538.97697 C 271.03825,521.32137 247.13005,515.18557 239.41985,530.92787 C 236.80655,536.26357 236.90305,541.05377 239.73135,546.40217 C 244.22755,554.90477 255.77595,557.81137 263.42415,552.36537 z M 334.63875,481.18387 C 344.94115,473.95672 344.60265,459.06473 333.99465,452.84805 C 322.84745,446.31537 309.25915,453.94874 309.07265,466.84817 C 308.88005,480.17502 323.99505,488.65049 334.63875,481.18387 z M 192.03803,470.88825 C 195.58473,470.17737 199.8029,466.18142 201.36162,462.05584 C 201.94478,460.51236 204.21893,450.16236 206.41529,439.05584 C 210.81468,416.80908 213.98165,407.42634 221.66945,393.86218 C 230.66525,377.99046 241.40385,365.4091 254.60125,355.27926 C 265.49335,346.91888 272.63925,342.96753 286.12565,337.8476 C 301.47075,332.02203 315.74235,329.86556 333.05465,330.75654 C 358.87995,332.08565 377.91305,340.29915 399.61765,359.48099 C 422.34575,379.56735 429.46735,392.94729 439.78435,434.94624 C 445.98635,460.19371 449.79725,466.83835 459.41735,469.17871 C 468.04445,471.27751 475.65275,467.36123 478.29255,459.46296 C 480.96325,451.47177 478.77405,430.084 473.42015,411.86218 C 465.60315,385.25754 451.27235,361.12529 431.05565,340.5229 C 417.08965,326.2906 408.13525,319.55258 392.92855,311.83304 C 372.42445,301.42436 357.11365,297.63116 331.73015,296.67142 C 310.03615,295.85117 297.56065,297.31384 281.42855,302.569 C 246.39035,313.98297 213.07764,341.02598 192.83771,374.48645 C 177.98291,399.04428 171.24401,421.26374 171.03865,446.36218 C 170.93093,459.52725 172.02126,463.87362 176.43317,467.86635 C 178.73672,469.95103 185.40525,472.38809 187.42857,471.88469 C 188.25357,471.67943 190.32783,471.23103 192.03803,470.88825 z M 608.05458,369.35343 C 616.70328,366.59862 623.96978,364.15437 624.20238,363.92177 C 624.43498,363.68917 621.39358,355.29233 617.44388,345.26213 C 582.88728,257.50758 509.24228,188.19185 419.97835,159.40468 C 409.67315,156.08131 401.11195,153.36218 400.95345,153.36218 C 400.47235,153.36218 392.14435,187.41823 392.55055,187.72473 C 392.75845,187.88163 400.22495,190.33104 409.14265,193.16787 C 464.70205,210.84182 515.41678,247.57166 550.58218,295.6045 C 567.04548,318.09192 577.09228,337.34278 590.51078,372.11218 C 590.98838,373.34968 591.59298,374.36218 591.85448,374.36218 C 592.11588,374.36218 599.40598,372.10824 608.05458,369.35343 z M 681.12168,345.7865 C 692.49258,342.15591 698.41658,339.80116 698.10298,339.0365 C 697.83818,338.39063 693.75978,328.06709 689.03978,316.09531 C 646.44848,208.0663 554.66388,122.26148 443.60625,86.651661 C 430.77895,82.538681 420.10465,79.352741 419.88565,79.571781 C 419.66655,79.790831 417.47875,87.730651 415.02365,97.215841 L 410.55995,114.46164 L 412.74425,115.29052 C 413.94565,115.74641 423.56255,118.88416 434.11505,122.26331 C 532.57138,153.79098 615.65678,232.32156 654.54838,330.61218 C 659.06408,342.02468 662.96128,351.36218 663.20878,351.36218 C 663.45628,351.36218 671.51708,348.85313 681.12168,345.7865 z"	/>
    </g>
</svg>
